<svg width="20" height="20" viewBox="0 0 20 20" fill="none" xmlns="http://www.w3.org/2000/svg">
<circle cx="10" cy="10" r="9.5" stroke="#912D2A"/>
<path d="M9.68847 7.1417L5.11884 12.2333C5.04256 12.3183 5 12.4311 5 12.5485C5 12.6659 5.04256 12.7788 5.11884 12.8637L5.124 12.8692C5.16099 12.9105 5.2055 12.9434 5.25484 12.9659C5.30418 12.9884 5.35731 13 5.411 13C5.4647 13 5.51783 12.9884 5.56717 12.9659C5.61651 12.9434 5.66102 12.9105 5.69801 12.8692L10.0009 8.07451L14.302 12.8692C14.339 12.9105 14.3835 12.9434 14.4328 12.9659C14.4822 12.9884 14.5353 13 14.589 13C14.6427 13 14.6958 12.9884 14.7452 12.9659C14.7945 12.9434 14.839 12.9105 14.876 12.8692L14.8812 12.8637C14.9574 12.7788 15 12.6659 15 12.5485C15 12.4311 14.9574 12.3183 14.8812 12.2333L10.3115 7.1417C10.2713 7.09692 10.223 7.06128 10.1695 7.03692C10.1159 7.01256 10.0583 7 10 7C9.94174 7 9.88409 7.01256 9.83054 7.03692C9.77699 7.06128 9.72866 7.09692 9.68847 7.1417Z" fill="#912D2A" stroke="#912D2A" stroke-width="0.5"/>
</svg>
