<svg width="20" height="20" viewBox="0 0 20 20" fill="none" xmlns="http://www.w3.org/2000/svg">
<path d="M12.0827 10.0001C12.0827 10.5526 11.8632 11.0825 11.4725 11.4732C11.0818 11.8639 10.5519 12.0834 9.99935 12.0834C9.44681 12.0834 8.91691 11.8639 8.52621 11.4732C8.13551 11.0825 7.91602 10.5526 7.91602 10.0001C7.91602 9.44754 8.13551 8.91763 8.52621 8.52693C8.91691 8.13623 9.44681 7.91674 9.99935 7.91674C10.5519 7.91674 11.0818 8.13623 11.4725 8.52693C11.8632 8.91763 12.0827 9.44754 12.0827 10.0001ZM11.2493 10.0001C11.2492 9.66844 11.1174 9.35044 10.8828 9.11602C10.6482 8.8816 10.3301 8.74996 9.99852 8.75007C9.66688 8.75018 9.34888 8.88203 9.11446 9.1166C8.88004 9.35118 8.7484 9.66927 8.74852 10.0009C8.74863 10.3325 8.88047 10.6505 9.11505 10.885C9.34963 11.1194 9.66772 11.251 9.99935 11.2509C10.331 11.2508 10.649 11.1189 10.8834 10.8844C11.1178 10.6498 11.2495 10.3317 11.2493 10.0001ZM12.0827 3.80257C12.0827 4.35511 11.8632 4.88501 11.4725 5.27571C11.0818 5.66641 10.5519 5.8859 9.99935 5.8859C9.44681 5.8859 8.91691 5.66641 8.52621 5.27571C8.13551 4.88501 7.91602 4.35511 7.91602 3.80257C7.91602 3.25004 8.13551 2.72013 8.52621 2.32943C8.91691 1.93873 9.44681 1.71924 9.99935 1.71924C10.5519 1.71924 11.0818 1.93873 11.4725 2.32943C11.8632 2.72013 12.0827 3.25004 12.0827 3.80257ZM11.2493 3.80257C11.2492 3.47094 11.1174 3.15294 10.8828 2.91852C10.6482 2.6841 10.3301 2.55246 9.99852 2.55257C9.66688 2.55268 9.34888 2.68453 9.11446 2.9191C8.88004 3.15368 8.7484 3.47177 8.74852 3.80341C8.74863 4.13504 8.88047 4.45304 9.11505 4.68746C9.34963 4.92188 9.66772 5.05352 9.99935 5.05341C10.331 5.05329 10.649 4.92145 10.8834 4.68687C11.1178 4.4523 11.2495 4.1342 11.2493 3.80257ZM12.0827 16.1976C12.0827 16.7501 11.8632 17.28 11.4725 17.6707C11.0818 18.0614 10.5519 18.2809 9.99935 18.2809C9.44681 18.2809 8.91691 18.0614 8.52621 17.6707C8.13551 17.28 7.91602 16.7501 7.91602 16.1976C7.91602 15.645 8.13551 15.1151 8.52621 14.7244C8.91691 14.3337 9.44681 14.1142 9.99935 14.1142C10.5519 14.1142 11.0818 14.3337 11.4725 14.7244C11.8632 15.1151 12.0827 15.645 12.0827 16.1976ZM11.2493 16.1976C11.2492 15.8659 11.1174 15.5479 10.8828 15.3135C10.6482 15.0791 10.3301 14.9475 9.99852 14.9476C9.66688 14.9477 9.34888 15.0795 9.11446 15.3141C8.88004 15.5487 8.7484 15.8668 8.74852 16.1984C8.74863 16.53 8.88047 16.848 9.11505 17.0825C9.34963 17.3169 9.66772 17.4485 9.99935 17.4484C10.331 17.4483 10.649 17.3164 10.8834 17.0819C11.1178 16.8473 11.2495 16.5292 11.2493 16.1976Z" fill="white"/>
</svg>
