<svg width="16" height="16" viewBox="0 0 16 16" fill="none" xmlns="http://www.w3.org/2000/svg">
<path d="M12.05 1.03613L14.832 3.93613V14.9641H4.43945V15.0001H14.8675V3.97263L12.05 1.03613Z" fill="#909090"/>
<path d="M12.0158 1H4.4043V14.964H14.8323V3.9365L12.0158 1Z" fill="#F4F4F4"/>
<path d="M4.32781 1.75H1.13281V5.1635H11.1828V1.75H4.32781Z" fill="#7A7B7C"/>
<path d="M11.2358 5.10545H1.19727V1.68945H11.2358V5.10545Z" fill="#DD2025"/>
<path d="M4.52655 2.26685H3.87305V4.66685H4.38705V3.85735L4.50055 3.86385C4.61083 3.86195 4.72008 3.84219 4.82405 3.80535C4.9152 3.774 4.99905 3.7245 5.07055 3.65985C5.1433 3.59826 5.20065 3.52053 5.23805 3.43285C5.28819 3.2871 5.30611 3.1322 5.29055 2.97885C5.28742 2.8693 5.26822 2.76081 5.23355 2.65685C5.20198 2.5818 5.15514 2.51415 5.096 2.45819C5.03686 2.40224 4.96672 2.35921 4.89005 2.33185C4.82375 2.30785 4.75525 2.29043 4.68555 2.27985C4.63276 2.2717 4.57946 2.26736 4.52605 2.26685M4.43155 3.41385H4.38705V2.67385H4.48355C4.52614 2.67078 4.56887 2.67731 4.6086 2.69298C4.64832 2.70864 4.68402 2.73303 4.71305 2.76435C4.77321 2.84486 4.80534 2.94285 4.80455 3.04335C4.80455 3.16635 4.80455 3.27785 4.69355 3.35635C4.61358 3.40033 4.52256 3.42063 4.43155 3.41385ZM6.26705 2.26035C6.21155 2.26035 6.15755 2.26435 6.11955 2.26585L6.00055 2.26885H5.61055V4.66885H6.06955C6.24496 4.67366 6.41961 4.64393 6.58355 4.58135C6.7155 4.52901 6.83235 4.44464 6.92355 4.33585C7.01223 4.22608 7.07588 4.09827 7.11005 3.96135C7.14933 3.80628 7.16849 3.64681 7.16705 3.48685C7.17675 3.29793 7.16213 3.10854 7.12355 2.92335C7.08694 2.78703 7.01838 2.66139 6.92355 2.55685C6.84914 2.47243 6.75806 2.40433 6.65605 2.35685C6.56844 2.31631 6.47628 2.28643 6.38155 2.26785C6.34388 2.26163 6.30572 2.25878 6.26755 2.25935M6.17655 4.22785H6.12655V2.69585H6.13305C6.23613 2.68399 6.34042 2.70259 6.43305 2.74935C6.50088 2.80351 6.55615 2.87175 6.59505 2.94935C6.63703 3.03102 6.66122 3.12065 6.66605 3.21235C6.67055 3.32235 6.66605 3.41235 6.66605 3.48685C6.66808 3.57267 6.66256 3.6585 6.64955 3.74335C6.63414 3.83046 6.60565 3.91475 6.56505 3.99335C6.51909 4.06643 6.457 4.128 6.38355 4.17335C6.32186 4.21325 6.24881 4.23186 6.17555 4.22635M8.71555 2.26885H7.50055V4.66885H8.01455V3.71685H8.66455V3.27085H8.01455V2.71485H8.71455V2.26885" fill="#464648"/>
<path d="M10.8903 10.1273C10.8903 10.1273 12.4843 9.83826 12.4843 10.3828C12.4843 10.9273 11.4968 10.7058 10.8903 10.1273ZM9.71185 10.1688C9.45859 10.2247 9.21179 10.3067 8.97535 10.4133L9.17535 9.96326C9.37535 9.51326 9.58285 8.89976 9.58285 8.89976C9.8215 9.30143 10.0992 9.67859 10.4118 10.0258C10.1761 10.0609 9.94237 10.109 9.71185 10.1698V10.1688ZM9.08085 6.91876C9.08085 6.44426 9.23435 6.31476 9.35385 6.31476C9.47335 6.31476 9.60785 6.37226 9.61235 6.78426C9.57341 7.19854 9.48667 7.60692 9.35385 8.00126C9.17191 7.67018 9.07775 7.29803 9.08035 6.92026L9.08085 6.91876ZM6.75635 12.1768C6.26735 11.8843 7.78185 10.9838 8.05635 10.9548C8.05485 10.9553 7.26835 12.4828 6.75635 12.1768ZM12.9498 10.4473C12.9448 10.3973 12.8998 9.84376 11.9148 9.86726C11.5043 9.86064 11.0939 9.88959 10.6883 9.95376C10.2955 9.55796 9.95716 9.11152 9.68235 8.62626C9.85548 8.12597 9.96026 7.60459 9.99385 7.07626C9.97935 6.47626 9.83585 6.13226 9.37585 6.13726C8.91585 6.14226 8.84885 6.54476 8.90935 7.14376C8.96861 7.54629 9.0804 7.9393 9.24185 8.31276C9.24185 8.31276 9.02935 8.97426 8.74835 9.63226C8.46735 10.2903 8.27535 10.6353 8.27535 10.6353C7.78671 10.7943 7.32671 11.0307 6.91285 11.3353C6.50085 11.7188 6.33335 12.0133 6.55035 12.3078C6.73735 12.5618 7.39185 12.6193 7.97685 11.8528C8.28767 11.4569 8.57164 11.0406 8.82685 10.6068C8.82685 10.6068 9.71885 10.3623 9.99635 10.2953C10.2738 10.2283 10.6093 10.1753 10.6093 10.1753C10.6093 10.1753 11.4238 10.9948 12.2093 10.9658C12.9948 10.9368 12.9568 10.4963 12.9518 10.4483" fill="#DD2025"/>
<path d="M11.9766 1.03857V3.97507H14.7931L11.9766 1.03857Z" fill="#909090"/>
<path d="M12.0156 1V3.9365H14.8321L12.0156 1Z" fill="#F4F4F4"/>
<path d="M4.48748 2.22827H3.83398V4.62827H4.34998V3.81927L4.46398 3.82577C4.57427 3.82388 4.68352 3.80412 4.78748 3.76727C4.87863 3.73591 4.96248 3.68642 5.03398 3.62177C5.10619 3.56002 5.16302 3.4823 5.19998 3.39477C5.25013 3.24902 5.26804 3.09412 5.25248 2.94077C5.24936 2.83123 5.23016 2.72274 5.19548 2.61877C5.16392 2.54373 5.11708 2.47607 5.05794 2.42012C4.9988 2.36417 4.92866 2.32114 4.85198 2.29377C4.78538 2.26954 4.71655 2.25195 4.64648 2.24127C4.5937 2.23313 4.54039 2.22878 4.48698 2.22827M4.39248 3.37527H4.34798V2.63527H4.44498C4.48757 2.6322 4.53031 2.63874 4.57003 2.65441C4.60976 2.67007 4.64545 2.69446 4.67448 2.72577C4.73464 2.80628 4.76678 2.90428 4.76598 3.00477C4.76598 3.12777 4.76598 3.23927 4.65498 3.31777C4.57502 3.36176 4.484 3.38156 4.39298 3.37477M6.22798 2.22177C6.17248 2.22177 6.11848 2.22577 6.08048 2.22727L5.96298 2.23027H5.57298V4.63027H6.03198C6.2074 4.63508 6.38204 4.60535 6.54598 4.54277C6.67794 4.49044 6.79479 4.40606 6.88598 4.29727C6.97467 4.1875 7.03831 4.05969 7.07248 3.92277C7.11177 3.76771 7.13092 3.60823 7.12948 3.44827C7.13918 3.25935 7.12456 3.06997 7.08598 2.88477C7.04938 2.74846 6.98082 2.62282 6.88598 2.51827C6.81158 2.43386 6.7205 2.36576 6.61848 2.31827C6.53087 2.27773 6.43872 2.24785 6.34398 2.22927C6.30631 2.22305 6.26816 2.22021 6.22998 2.22077M6.13898 4.18927H6.08898V2.65727H6.09548C6.19856 2.64541 6.30286 2.66401 6.39548 2.71077C6.46332 2.76494 6.51859 2.83317 6.55748 2.91077C6.59946 2.99244 6.62366 3.08208 6.62848 3.17377C6.63298 3.28377 6.62848 3.37377 6.62848 3.44827C6.63052 3.53409 6.625 3.61992 6.61198 3.70477C6.59657 3.79189 6.56809 3.87617 6.52748 3.95477C6.48153 4.02785 6.41944 4.08943 6.34598 4.13477C6.2843 4.17467 6.21124 4.19329 6.13798 4.18777M8.67649 2.23027H7.46148V4.63027H7.97548V3.67827H8.62548V3.23227H7.97548V2.67627H8.67548V2.23027" fill="white"/>
</svg>
